<svg width="24" height="25" viewBox="0 0 24 25" fill="none" xmlns="http://www.w3.org/2000/svg">
<path d="M20.6797 12.6702L20.7148 13.1643C20.9598 16.6483 20.0388 19.6786 17.4531 21.6438C17.1851 21.8474 16.814 21.8473 16.5459 21.6438C13.9604 19.6818 13.0402 16.6479 13.2852 13.1643L13.3193 12.6702L17 11.3958L20.6797 12.6702ZM16.25 5.14673C16.25 4.45637 15.6904 3.89673 15 3.89673H9C8.30964 3.89673 7.75 4.45637 7.75 5.14673V5.69946C8.12532 5.50737 8.54942 5.39673 9 5.39673H15C15.4506 5.39673 15.8747 5.50737 16.25 5.69946V5.14673ZM7.75 19.1467C7.75 19.8371 8.30964 20.3967 9 20.3967H9.42969C9.3138 20.1294 9.25002 19.836 9.25 19.5305C9.25 19.3124 9.28318 19.0992 9.34473 18.8967H9C8.54926 18.8967 8.12542 18.7852 7.75 18.593V19.1467ZM17.75 9.14673C17.75 9.56094 17.4142 9.89673 17 9.89673C16.5858 9.89673 16.25 9.56094 16.25 9.14673V8.14673C16.25 7.45637 15.6904 6.89673 15 6.89673H9C8.30964 6.89673 7.75 7.45637 7.75 8.14673V16.1467L7.75684 16.2747C7.82092 16.9049 8.35285 17.3967 9 17.3967H11C11.3478 17.3967 11.6496 17.6363 11.7295 17.9749C11.8092 18.3133 11.646 18.6621 11.335 18.8176L11.126 18.9221C10.8957 19.0373 10.75 19.273 10.75 19.5305C10.7501 19.8423 10.9622 20.114 11.2646 20.1897L12.1816 20.4192C12.5491 20.5111 12.7904 20.8626 12.7441 21.2385C12.6978 21.6144 12.3787 21.8967 12 21.8967H9C7.48122 21.8967 6.25 20.6655 6.25 19.1467V5.14673C6.25 3.62795 7.48122 2.39673 9 2.39673H15C16.5188 2.39673 17.75 3.62795 17.75 5.14673V9.14673Z" fill="#2F303C"/>
</svg>
