<svg width="24" height="24" viewBox="0 0 24 24" fill="none" xmlns="http://www.w3.org/2000/svg">
<path d="M20.75 10.25H12.7852C12.4491 10.25 12.1993 10.0852 12.0566 9.96484C11.9076 9.83891 11.789 9.68782 11.7021 9.56543C11.6123 9.43877 11.5317 9.30817 11.4697 9.2041C11.3995 9.08632 11.3615 9.01937 11.3291 8.9707L10.9229 8.36133C10.8765 8.29179 10.7984 8.25001 10.7148 8.25H6.25C6.17138 8.25 6.09702 8.28675 6.0498 8.34961L5.52539 9.0498C5.50356 9.07891 5.46984 9.13227 5.40332 9.24023C5.34591 9.3334 5.26918 9.45865 5.18457 9.57812C5.1027 9.69373 4.98844 9.83975 4.8457 9.96289C4.71092 10.0791 4.4635 10.25 4.125 10.25H3.25V18.5C3.25 18.6381 3.36193 18.75 3.5 18.75H20.5C20.6381 18.75 20.75 18.6381 20.75 18.5V10.25ZM16.75 7.5V6.5C16.75 6.08582 17.0858 5.75003 17.5 5.75C17.9142 5.75002 18.25 6.08581 18.25 6.5V7.5C18.25 7.9142 17.9142 8.25 17.5 8.25C17.0858 8.24998 16.75 7.91419 16.75 7.5ZM18.75 7.5V6.5C18.75 6.08582 19.0858 5.75003 19.5 5.75C19.9142 5.75002 20.25 6.08581 20.25 6.5V7.5C20.25 7.9142 19.9142 8.25 19.5 8.25C19.0858 8.24998 18.75 7.91419 18.75 7.5ZM20.75 5.5C20.75 5.36814 20.7303 5.29617 20.7188 5.2627C20.7158 5.26221 20.7123 5.26124 20.709 5.26074C20.6695 5.25491 20.6132 5.25 20.5371 5.25H3.73633C3.6059 5.25001 3.46095 5.25552 3.3457 5.26562C3.31985 5.26789 3.29781 5.27124 3.2793 5.27344C3.26818 5.30547 3.25 5.37429 3.25 5.5V8.75H3.93066C3.93966 8.73807 3.94976 8.72534 3.95996 8.71094C4.0124 8.63689 4.06486 8.55231 4.12598 8.45312C4.17789 8.36888 4.25269 8.24709 4.3252 8.15039L4.84961 7.4502C5.1801 7.00954 5.69918 6.75 6.25 6.75H10.7148C11.2999 6.75001 11.8463 7.04246 12.1709 7.5293L12.5771 8.13867C12.6374 8.22904 12.7078 8.35002 12.7588 8.43555C12.8178 8.53465 12.8718 8.62251 12.9248 8.69727C12.9399 8.71851 12.956 8.73491 12.9678 8.75H20.75V5.5ZM22.25 18.5C22.25 19.4665 21.4665 20.25 20.5 20.25H3.5C2.5335 20.25 1.75 19.4665 1.75 18.5V5.5C1.75 4.85395 1.98369 4.18254 2.68945 3.88379V3.88477C2.80909 3.83207 2.92114 3.81101 2.96191 3.80371C3.04399 3.78902 3.13243 3.77871 3.21484 3.77148C3.38131 3.75689 3.57062 3.75001 3.73633 3.75H20.5371C20.7294 3.75 20.9315 3.76569 21.125 3.81543L21.3154 3.87793L21.3398 3.8877C22.0337 4.19356 22.25 4.86923 22.25 5.5V18.5Z" fill="#2F303C"/>
</svg>
