<svg width="24" height="24" viewBox="0 0 24 24" fill="none" xmlns="http://www.w3.org/2000/svg">
<path d="M17 19.5C17.5523 19.5 18 19.9477 18 20.5C18 21.0523 17.5523 21.5 17 21.5H7C6.44772 21.5 6 21.0523 6 20.5C6 19.9477 6.44772 19.5 7 19.5H17ZM20 6.5C20 5.95228 19.5477 5.5 19 5.5H5C4.45228 5.5 4 5.95228 4 6.5V15.5C4 16.0477 4.45228 16.5 5 16.5H19C19.5477 16.5 20 16.0477 20 15.5V6.5ZM14 6.61035C15.587 6.61035 16.8943 7.8518 16.9756 9.43359C16.9836 9.48461 16.9902 9.53657 16.9902 9.58984C16.9902 10.4034 16.6587 11.1557 16.1172 11.6973L12.7168 15.0967C12.5293 15.2842 12.275 15.3896 12.0098 15.3896C11.7446 15.3896 11.4902 15.2842 11.3027 15.0967L7.90332 11.6973C7.36373 11.1577 7.03027 10.4161 7.03027 9.58984C7.03035 7.95099 8.35435 6.61048 10.0098 6.61035C10.781 6.61035 11.4813 6.90285 12.0098 7.37891C12.5367 6.90346 13.234 6.61035 14 6.61035ZM9.03027 9.58984C9.03027 9.8636 9.13697 10.1028 9.31738 10.2832L12.0098 12.9756L14.7031 10.2832C14.8594 10.1269 14.9622 9.91707 14.9854 9.68848C14.9822 9.65606 14.9805 9.6231 14.9805 9.58984C14.9804 9.04548 14.541 8.61035 14 8.61035C13.6208 8.61035 13.2808 8.83489 13.1201 9.16602L13.1143 9.17676C12.9062 9.59285 12.4815 9.86035 12.0098 9.86035C11.5381 9.86026 11.1133 9.59277 10.9053 9.17676L10.9004 9.16602C10.741 8.83743 10.4019 8.61035 10.0098 8.61035C9.4655 8.61048 9.03035 9.04898 9.03027 9.58984ZM22 15.5C22 17.1523 20.6523 18.5 19 18.5H5C3.34772 18.5 2 17.1523 2 15.5V6.5C2 4.84772 3.34772 3.5 5 3.5H19C20.6523 3.5 22 4.84772 22 6.5V15.5Z" fill="#2F303C"/>
</svg>
