<svg width="24" height="24" viewBox="0 0 24 24" fill="none" xmlns="http://www.w3.org/2000/svg">
<path d="M21.0695 10.248C21.7444 11.3177 21.7444 12.6823 21.0695 13.752C19.2326 16.6635 15.8499 18.5996 12.0002 18.5996C8.15051 18.5996 4.76776 16.6634 2.93084 13.752C2.25613 12.6823 2.25613 11.3177 2.93084 10.248C4.76776 7.33658 8.15051 5.40045 12.0002 5.40039C15.8499 5.40039 19.2326 7.33654 21.0695 10.248ZM3.94646 10.8887C3.51847 11.5672 3.51847 12.4328 3.94646 13.1113C5.55868 15.6666 8.55318 17.4003 12.0002 17.4004C15.4472 17.4004 18.4426 15.6667 20.0549 13.1113C20.4826 12.433 20.4826 11.567 20.0549 10.8887C18.4426 8.33332 15.4472 6.59961 12.0002 6.59961C8.55318 6.59967 5.55868 8.33336 3.94646 10.8887ZM12.0002 15.5996C10.012 15.5995 8.40057 13.9882 8.40057 12C8.40057 10.0118 10.012 8.40048 12.0002 8.40039C13.9884 8.40039 15.6008 10.0118 15.6008 12C15.6008 13.9882 13.9884 15.5996 12.0002 15.5996ZM12.4282 12.1729C12.9076 11.998 13.2504 11.5399 13.2504 11C13.2504 10.3096 12.6908 9.75 12.0004 9.75C11.3101 9.75 10.7504 10.3096 10.7504 11C10.7504 11.5396 11.0927 11.9977 11.5717 12.1729L10.853 13.9043C10.821 13.9813 10.8292 14.0693 10.8754 14.1387C10.9217 14.2081 11 14.2499 11.0834 14.25H12.9174C13.0008 14.2499 13.0791 14.2081 13.1254 14.1387C13.1716 14.0693 13.1798 13.9813 13.1479 13.9043L12.4282 12.1729Z" fill="#2F303C"/>
</svg>
