<svg width="48" height="48" viewBox="0 0 48 48" fill="none" xmlns="http://www.w3.org/2000/svg">
<path d="M43.5992 28.1496C44.0909 28.2215 44.4308 28.6783 44.359 29.1701C43.8727 32.5004 42.5305 35.6385 40.4117 38.3605C40.1064 38.7527 39.5403 38.8231 39.1481 38.5177C38.7561 38.2123 38.6856 37.6471 38.9908 37.255C40.9217 34.7747 42.1382 31.9271 42.5787 28.9103C42.6505 28.4185 43.1074 28.0777 43.5992 28.1496ZM4.40099 28.1398C4.8927 28.068 5.35047 28.4079 5.42247 28.8996C5.86271 31.9145 7.08707 34.7642 9.02013 37.257C9.32465 37.6498 9.25372 38.2151 8.86095 38.5197C8.46818 38.8241 7.90281 38.7522 7.59826 38.3595C5.48147 35.6298 4.12786 32.4927 3.64122 29.1603C3.56943 28.6686 3.90942 28.2118 4.40099 28.1398ZM7.57872 14.3361C7.88405 13.9439 8.45017 13.8735 8.8424 14.1789C9.23431 14.4842 9.30468 15.0494 8.99962 15.4415C7.0695 17.921 5.84276 20.7985 5.40197 23.8458C5.33081 24.3378 4.87437 24.6787 4.38243 24.6076C3.89055 24.5364 3.54956 24.0799 3.62072 23.588C4.10678 20.2279 5.45909 17.059 7.57872 14.3361ZM39.1451 14.1808C39.5361 13.8741 40.1019 13.9424 40.4088 14.3332C42.531 17.0383 43.8839 20.209 44.3697 23.589C44.4405 24.081 44.099 24.5368 43.607 24.6076C43.115 24.6783 42.6592 24.3369 42.5885 23.8449C42.1475 20.7771 40.9204 17.9016 38.9928 15.4445C38.6861 15.0535 38.7543 14.4876 39.1451 14.1808ZM21.1539 6.61538C21.6464 6.54845 22.0997 6.89338 22.1666 7.38588C22.2335 7.87837 21.8886 8.33163 21.3961 8.39858C18.2167 8.83083 15.2348 10.0215 12.6783 11.8898C12.2771 12.1827 11.7147 12.0947 11.4215 11.6935C11.1282 11.2922 11.2155 10.729 11.6168 10.4357C14.4198 8.38726 17.6844 7.08704 21.1539 6.61538ZM26.8541 6.6144C30.3175 7.07617 33.5816 8.38929 36.3922 10.4357C36.794 10.7283 36.8829 11.2907 36.5904 11.6925C36.2979 12.0944 35.7345 12.1833 35.3326 11.8908C32.7637 10.0203 29.7822 8.82166 26.6168 8.39956C26.1241 8.33387 25.7777 7.88053 25.8434 7.38784C25.9091 6.89534 26.3616 6.54888 26.8541 6.6144Z" fill="#2F303C"/>
<path d="M33.3508 24.5405V20.0815C33.3508 19.7216 33.1314 19.4284 32.8313 19.3256L24.2434 16.4555C24.2387 16.454 24.2344 16.4513 24.2297 16.4497C24.2251 16.449 24.2196 16.4495 24.2131 16.4487C24.2052 16.4477 24.1961 16.4461 24.1857 16.4448C24.1642 16.4421 24.1426 16.4383 24.1213 16.434C24.0368 16.4172 24.0074 16.4149 24.0012 16.4145C23.9926 16.4154 23.964 16.4189 23.8957 16.4331C23.867 16.439 23.8379 16.4426 23.8088 16.4458C23.802 16.4479 23.7937 16.451 23.7854 16.4536C23.7794 16.4554 23.7721 16.4563 23.7649 16.4585L15.1623 19.3286C14.8575 19.4362 14.6399 19.7331 14.6399 20.0815V24.5503C14.6399 31.1412 18.0655 37.3345 23.5705 40.7104C23.5827 40.7165 23.5957 40.7213 23.6076 40.728C23.7374 40.8004 23.87 40.8354 23.9953 40.8354C24.1151 40.8354 24.2372 40.8034 24.3723 40.728C24.3748 40.7266 24.3775 40.7255 24.3801 40.7241C29.9084 37.3535 33.3508 31.1569 33.3508 24.5405ZM24.5334 40.6586C24.5256 40.6613 24.5179 40.6646 24.51 40.6674C24.522 40.6632 24.5339 40.6585 24.5461 40.6547C24.542 40.656 24.5376 40.6573 24.5334 40.6586ZM24.7971 40.6137C24.7923 40.6138 24.7873 40.6145 24.7824 40.6147C24.7727 40.615 24.7625 40.615 24.7522 40.6157C24.7314 40.6171 24.7088 40.6192 24.6857 40.6225C24.6777 40.6237 24.6697 40.626 24.6613 40.6274C24.7103 40.6191 24.7598 40.6138 24.8098 40.6137H24.7971ZM28.2482 24.4936C28.5958 24.1386 29.1655 24.1325 29.5207 24.4799C29.8759 24.8275 29.8819 25.3971 29.5344 25.7524L22.8557 32.5815C22.6878 32.7532 22.4581 32.8514 22.218 32.853C21.9778 32.8545 21.7465 32.7599 21.5764 32.5903L18.4641 29.4868C18.1121 29.1358 18.1112 28.5663 18.4621 28.2143C18.813 27.8623 19.3826 27.8614 19.7346 28.2124L22.2043 30.6733L28.2482 24.4936ZM35.1506 24.5405C35.1506 31.7772 31.3866 38.5705 25.299 42.2729C25.2627 42.2955 25.226 42.3142 25.1897 42.3305C24.8354 42.5175 24.435 42.6352 23.9953 42.6352C23.5706 42.6352 23.1695 42.5257 22.8156 42.3442C22.773 42.3266 22.7313 42.3068 22.6916 42.2827C16.6038 38.5802 12.8391 31.7767 12.8391 24.5503V20.0815C12.8391 18.9663 13.5447 17.979 14.5861 17.6225L14.593 17.6206L23.2063 14.7485C23.2189 14.7443 23.2325 14.7404 23.2453 14.7368L23.2717 14.728C23.2889 14.7225 23.3224 14.7118 23.3596 14.7016C23.4176 14.6857 23.5033 14.6656 23.6076 14.6567C23.7254 14.6343 23.8555 14.6138 24.0012 14.6137C24.1605 14.6137 24.3039 14.6378 24.4328 14.6626C24.5008 14.6707 24.6528 14.6925 24.8137 14.7504L24.8147 14.7485L33.4074 17.6206L33.4143 17.6225C34.4639 17.9818 35.1506 18.9752 35.1506 20.0815V24.5405Z" fill="#2F303C"/>
</svg>
