<svg width="24" height="24" viewBox="0 0 24 24" fill="none" xmlns="http://www.w3.org/2000/svg">
<path d="M15.9619 6C15.9619 5.58579 16.2977 5.25 16.7119 5.25C17.1261 5.25 17.4619 5.58579 17.4619 6V16.4707L19.2529 15.084C19.5803 14.8307 20.0511 14.8906 20.3047 15.2178C20.5583 15.5453 20.4984 16.0169 20.1709 16.2705L17.1709 18.5928C16.9006 18.8021 16.5233 18.8021 16.2529 18.5928L13.2529 16.2705C12.9254 16.0169 12.8656 15.5453 13.1191 15.2178C13.3727 14.8906 13.8435 14.8307 14.1709 15.084L15.9619 16.4707V6ZM12.7119 11.75C13.126 11.7501 13.4619 12.0859 13.4619 12.5C13.4619 12.9141 13.126 13.2499 12.7119 13.25H10.7314C10.3173 13.2499 9.98145 12.9141 9.98145 12.5C9.98145 12.0859 10.3173 11.7501 10.7314 11.75H12.7119ZM12.7119 8.75C13.126 8.75012 13.4619 9.08586 13.4619 9.5C13.4619 9.91414 13.126 10.2499 12.7119 10.25H7.73145C7.31732 10.2499 6.98145 9.91415 6.98145 9.5C6.98145 9.08585 7.31732 8.75011 7.73145 8.75H12.7119ZM12.75 5.75C13.1642 5.75 13.5 6.08579 13.5 6.5C13.5 6.91421 13.1642 7.25 12.75 7.25H4.75C4.33579 7.25 4 6.91421 4 6.5C4 6.08579 4.33579 5.75 4.75 5.75H12.75Z" fill="#2F303C"/>
</svg>
